<?xml version="1.0" standalone="no"?>
<!DOCTYPE svg PUBLIC "-//W3C//DTD SVG 20010904//EN"
 "http://www.w3.org/TR/2001/REC-SVG-20010904/DTD/svg10.dtd">
<svg version="1.0" xmlns="http://www.w3.org/2000/svg"
 width="225.000000pt" height="225.000000pt" viewBox="0 0 225.000000 225.000000"
 preserveAspectRatio="xMidYMid meet">
<g transform="translate(0.000000,225.000000) scale(0.100000,-0.100000)"
fill="#007bff" stroke="none">
<path d="M938 1903 c7 -3 16 -2 19 1 4 3 -2 6 -13 5 -11 0 -14 -3 -6 -6z"/>
<path d="M1085 1901 c-3 -5 -1 -12 5 -16 5 -3 10 1 10 9 0 18 -6 21 -15 7z"/>
<path d="M1121 1884 c0 -11 3 -14 6 -6 3 7 2 16 -1 19 -3 4 -6 -2 -5 -13z"/>
<path d="M890 1880 c-9 -6 -10 -10 -3 -10 6 0 15 5 18 10 8 12 4 12 -15 0z"/>
<path d="M932 1878 c-10 -10 -9 -16 5 -28 10 -8 16 -14 14 -13 -2 2 -10 -2
-18 -8 -7 -6 -13 -7 -13 -2 0 5 -7 10 -15 10 -10 0 -12 -4 -5 -12 5 -7 6 -16
2 -20 -4 -5 2 -5 12 -1 118 42 318 43 438 0 21 -7 36 -9 33 -4 -3 6 -1 10 4
10 6 0 11 -5 11 -10 0 -6 26 -23 58 -38 79 -37 78 -37 65 -21 -10 12 -8 15 7
16 14 1 17 -4 14 -21 -3 -17 7 -31 45 -59 42 -32 52 -36 74 -28 25 10 30 32
11 51 -7 7 -17 3 -30 -11 -10 -13 -13 -19 -7 -15 9 5 11 2 7 -9 -6 -14 -8 -14
-19 2 -7 10 -11 21 -9 25 3 5 1 8 -4 8 -5 0 -8 10 -8 21 1 12 -5 24 -11 26 -7
3 -13 0 -13 -7 0 -6 5 -8 10 -5 6 3 10 -1 10 -9 0 -8 -5 -18 -12 -22 -7 -4 -8
-3 -4 4 4 7 1 12 -8 12 -15 0 -16 16 -2 39 6 10 5 12 -2 7 -7 -4 -20 -3 -29 2
-9 6 -26 6 -38 2 -13 -5 -28 -4 -36 2 -11 8 -10 9 4 4 9 -3 17 0 17 5 0 7 -9
9 -21 6 -19 -5 -64 25 -53 36 3 2 -2 7 -11 11 -11 4 -14 2 -9 -6 5 -8 2 -9 -9
-5 -10 4 -17 1 -17 -6 0 -9 -2 -9 -8 -1 -12 20 -104 37 -197 38 -49 1 -93 6
-97 11 -5 6 -19 4 -38 -7 -35 -20 -56 -15 -63 13 -6 22 -18 24 -35 7z m128
-22 c0 -3 -4 -8 -10 -11 -5 -3 -10 -1 -10 4 0 6 5 11 10 11 6 0 10 -2 10 -4z
m173 -13 c-7 -2 -19 -2 -25 0 -7 3 -2 5 12 5 14 0 19 -2 13 -5z"/>
<path d="M1442 1844 c10 -10 20 -16 22 -13 3 3 -5 11 -17 18 -21 13 -21 12 -5
-5z"/>
<path d="M800 1846 c0 -2 7 -9 15 -16 9 -7 15 -8 15 -2 0 5 -7 12 -15 16 -8 3
-15 4 -15 2z"/>
<path d="M745 1820 c-16 -7 -17 -9 -3 -9 9 -1 20 4 23 9 7 11 7 11 -20 0z"/>
<path d="M1430 1820 c0 -6 7 -10 15 -10 8 0 15 2 15 4 0 2 -7 6 -15 10 -8 3
-15 1 -15 -4z"/>
<path d="M771 1800 c-13 -11 -20 -20 -16 -20 5 0 1 -8 -8 -18 -10 -10 -14 -21
-11 -25 4 -4 -3 -5 -14 -2 -12 2 -24 0 -27 -6 -4 -5 -15 -9 -25 -9 -12 0 -17
-6 -16 -17 4 -23 30 -28 48 -10 8 8 34 25 58 37 41 21 43 23 25 36 -10 8 -15
17 -12 21 4 3 13 -1 20 -11 11 -16 15 -16 54 1 57 24 66 46 15 37 -20 -4 -45
-11 -54 -16 -11 -5 -18 -5 -18 1 0 5 6 12 13 14 6 3 8 6 2 6 -5 0 -21 -9 -34
-19z m64 -10 c-27 -12 -43 -12 -25 0 8 5 22 9 30 9 10 0 8 -3 -5 -9z"/>
<path d="M962 1800 c-127 -36 -228 -95 -319 -187 -47 -47 -82 -87 -79 -90 3
-3 -1 -11 -10 -17 -8 -6 -16 -19 -17 -28 -2 -9 -8 -23 -15 -31 -25 -29 -70
-175 -77 -243 -3 -38 -8 -79 -10 -91 -3 -12 0 -25 6 -29 7 -4 9 -22 4 -50 -5
-36 -3 -44 10 -44 13 0 15 8 10 48 -11 96 -11 148 1 199 7 29 11 53 9 53 -6 0
53 139 68 160 14 21 14 21 20 -1 3 -13 2 -30 -4 -38 -8 -12 -9 -10 -5 9 3 14
-7 -2 -24 -35 -16 -33 -31 -73 -35 -90 -5 -28 -4 -28 9 5 19 45 19 29 2 -35
-10 -35 -15 -43 -16 -25 -1 14 -4 19 -7 12 -3 -7 -2 -20 2 -30 5 -9 7 -42 7
-72 -1 -36 1 -50 7 -41 5 8 8 30 6 50 -2 19 -1 40 3 45 3 6 7 22 7 36 8 125
135 316 271 406 46 30 153 83 172 84 4 0 25 6 47 12 54 14 219 13 275 -2 25
-7 61 -12 80 -12 26 0 30 -2 16 -7 -19 -7 -19 -8 2 -13 12 -4 20 -2 16 3 -8
14 3 11 64 -18 37 -18 87 -58 145 -115 48 -47 87 -82 87 -78 0 19 -148 158
-200 187 -65 37 -145 67 -218 82 -61 13 -243 15 -225 3 8 -5 -7 -8 -35 -9 -56
0 -165 -39 -156 -55 4 -7 2 -8 -4 -4 -15 9 -93 -34 -86 -46 3 -5 1 -7 -4 -6
-14 4 -74 -41 -68 -51 3 -4 -11 -23 -31 -42 -21 -19 -31 -26 -24 -16 7 9 10
17 7 17 -10 0 -55 -53 -55 -65 0 -5 6 -1 14 9 8 11 15 15 15 9 0 -5 -12 -23
-26 -39 -15 -16 -24 -24 -20 -18 3 7 -2 15 -11 18 -10 4 -13 10 -7 14 5 4 27
30 49 57 201 255 568 333 843 180 24 -14 49 -22 56 -18 6 3 8 3 4 -2 -4 -4 16
-26 45 -48 29 -23 58 -47 65 -54 8 -7 18 -10 24 -7 10 7 -31 50 -84 89 -63 46
-170 96 -246 116 -99 25 -261 25 -350 -1z m55 -46 c-3 -3 -12 -4 -19 -1 -8 3
-5 6 6 6 11 1 17 -2 13 -5z m-481 -395 c-9 -19 -15 -29 -16 -22 0 15 22 64 27
60 2 -2 -3 -19 -11 -38z"/>
<path d="M727 1780 c3 -12 0 -20 -6 -20 -7 0 -9 5 -5 12 4 7 3 8 -4 4 -6 -4
-9 -13 -5 -22 4 -11 9 -12 19 -3 16 13 18 35 5 43 -5 4 -7 -3 -4 -14z"/>
<path d="M643 1753 c0 -9 4 -10 14 -2 7 6 13 12 13 14 0 1 -6 2 -13 2 -8 0
-14 -6 -14 -14z"/>
<path d="M621 1743 c0 -12 -5 -24 -11 -28 -5 -3 -6 -13 -3 -22 6 -15 7 -14 14
3 6 15 8 16 8 2 1 -9 4 -18 9 -21 4 -2 2 -2 -5 -1 -6 2 -14 -2 -17 -9 -3 -9
-5 -8 -5 1 -1 7 -6 10 -13 6 -6 -4 -8 -3 -5 2 3 6 1 16 -5 24 -8 12 -9 11 -4
-4 4 -13 2 -17 -7 -13 -8 3 -14 -1 -14 -9 0 -8 2 -12 5 -9 2 2 12 -4 21 -13
10 -11 12 -12 6 -2 -9 13 -8 13 7 1 10 -7 15 -17 12 -22 -8 -14 -34 -11 -34 4
0 8 -4 7 -10 -3 -8 -13 -10 -12 -10 3 0 11 -5 15 -11 11 -8 -4 -8 -9 0 -17 17
-17 13 -30 -6 -22 -10 4 -33 9 -52 10 l-34 4 29 -18 c18 -11 32 -14 35 -8 9
14 29 -1 28 -21 0 -9 -3 -12 -5 -6 -6 14 -44 6 -44 -8 0 -5 4 -7 9 -3 17 10
21 -12 6 -31 -11 -14 -14 -15 -9 -3 3 10 -1 19 -10 22 -19 7 -19 6 -6 -29 9
-24 9 -25 -5 -14 -13 11 -15 9 -15 -10 0 -13 -6 -28 -14 -34 -8 -6 -17 -22
-21 -34 -6 -22 -5 -23 14 -13 12 7 21 8 21 2 0 -5 -9 -13 -20 -16 -11 -3 -20
-11 -20 -17 0 -12 42 14 47 29 2 6 -4 18 -13 28 -13 12 -13 16 -3 15 29 -5 39
1 54 30 8 16 16 32 16 34 0 7 58 74 87 102 14 14 21 28 16 35 -5 9 -2 10 9 6
22 -8 31 8 13 23 -8 6 -13 20 -11 31 2 11 0 17 -5 14 -5 -3 -11 5 -13 17 -4
23 -4 23 -6 1z m-50 -154 c-5 -13 -10 -19 -10 -12 -1 15 10 45 15 40 3 -2 0
-15 -5 -28z"/>
<path d="M684 1752 c3 -6 -2 -13 -11 -15 -16 -4 -16 -5 -1 -6 21 -1 32 15 17
25 -7 4 -9 3 -5 -4z"/>
<path d="M1020 1716 c-36 -7 -83 -21 -105 -31 -22 -10 -42 -19 -45 -19 -42
-11 -220 -173 -220 -201 0 -6 5 -16 10 -21 7 -7 1 -29 -20 -70 -32 -64 -35
-74 -20 -74 6 0 10 8 10 18 0 15 2 15 11 2 9 -13 10 -13 6 1 -3 9 -1 22 4 30
7 11 12 12 29 1 12 -7 20 -8 20 -2 0 5 -4 10 -8 10 -5 0 -17 6 -28 14 -21 16
0 17 25 2 9 -6 8 -1 -3 17 -15 22 -15 26 -1 40 19 19 20 34 1 18 -11 -9 -15
-8 -20 4 -3 9 -2 14 3 11 12 -8 34 21 26 34 -4 6 -3 9 2 8 13 -4 83 53 78 62
-3 4 3 14 12 21 12 10 14 10 9 2 -4 -7 -4 -13 -1 -13 12 0 56 39 54 47 -4 13
100 60 163 73 35 8 99 11 165 8 118 -6 182 -24 267 -78 26 -17 52 -28 57 -24
5 3 8 1 7 -4 -2 -5 21 -32 50 -60 28 -29 52 -56 52 -61 0 -18 34 -22 49 -5 9
9 11 14 5 11 -14 -8 -67 57 -56 68 4 3 0 5 -8 3 -9 -2 -14 3 -12 11 3 12 0 12
-12 2 -12 -10 -14 -9 -11 6 4 27 -4 34 -25 23 -16 -8 -18 -8 -14 5 4 8 1 15
-6 15 -6 0 -8 5 -5 10 4 6 3 9 -2 8 -16 -4 -53 14 -47 23 3 5 2 8 -3 7 -18 -5
-53 14 -46 25 5 9 3 9 -8 0 -12 -10 -26 -8 -70 9 -67 26 -224 33 -319 14z"/>
<path d="M230 1690 c8 -5 20 -10 25 -10 6 0 3 5 -5 10 -8 5 -19 10 -25 10 -5
0 -3 -5 5 -10z"/>
<path d="M1032 1692 c-8 -5 29 -7 90 -4 95 4 111 2 188 -25 89 -31 184 -83
163 -90 -9 -3 -10 -10 -3 -24 7 -13 7 -19 0 -19 -5 0 -10 5 -10 11 0 8 -4 8
-14 0 -12 -10 -16 -8 -21 10 l-8 23 -17 -21 -17 -22 -11 24 c-12 26 -7 55 9
55 5 0 12 -7 15 -15 4 -8 10 -12 15 -9 5 3 12 -2 15 -10 7 -19 24 -21 24 -3 0
7 -17 23 -39 35 -43 25 -56 27 -45 10 4 -7 3 -8 -5 -4 -6 4 -9 11 -6 16 6 10
-42 23 -56 14 -5 -3 -15 -1 -22 4 -21 18 -186 37 -199 24 -9 -9 -9 -12 0 -12
7 0 12 -4 12 -9 0 -5 -8 -8 -17 -6 -10 1 -17 8 -15 14 1 6 -3 11 -9 11 -6 0
-9 -8 -7 -18 8 -30 -45 -56 -56 -27 -6 18 25 29 36 13 5 -9 8 -6 8 9 0 18 -4
20 -27 14 -21 -6 -28 -14 -29 -34 -1 -24 3 -27 31 -27 18 0 38 7 45 15 7 8 23
15 37 15 21 0 22 3 13 20 -9 17 -8 20 10 20 12 0 34 -7 51 -15 16 -9 35 -13
42 -9 7 4 3 -2 -7 -14 -11 -12 -14 -22 -8 -22 6 0 13 4 16 9 9 13 46 1 46 -15
0 -8 -4 -14 -10 -14 -5 0 -10 5 -10 10 0 6 -4 10 -10 10 -15 0 -12 -17 5 -24
20 -7 45 3 45 19 0 7 -10 20 -22 28 -13 9 -18 16 -11 16 6 1 18 -5 25 -11 20
-19 40 -21 49 -6 6 9 9 9 9 1 0 -6 -4 -15 -10 -18 -13 -8 -13 -25 -1 -25 5 0
13 9 16 21 6 19 7 20 20 2 7 -10 11 -21 9 -24 -2 -4 1 -21 7 -38 12 -34 33
-41 44 -13 6 16 7 16 16 0 5 -10 16 -15 24 -12 18 7 20 -7 3 -24 -7 -7 -9 -12
-5 -12 5 0 18 11 31 25 24 26 36 24 36 -7 0 -11 5 -16 10 -13 10 6 15 -14 11
-50 -1 -17 0 -18 11 -5 7 9 12 14 11 12 -1 -2 6 -13 16 -24 19 -19 36 -77 26
-86 -3 -3 -5 1 -5 9 0 8 -9 15 -19 16 -14 1 -18 -3 -14 -13 3 -8 1 -14 -4 -14
-18 0 -23 13 -11 28 10 11 8 17 -7 29 -19 13 -20 12 -23 -14 -3 -19 3 -33 18
-45 28 -23 40 -23 40 0 0 13 2 14 9 3 5 -7 14 -11 19 -7 12 7 52 -14 52 -27 0
-4 -4 -5 -10 -2 -16 10 -12 -7 7 -27 14 -16 15 -20 1 -35 -12 -14 -14 -30 -9
-71 4 -29 5 -54 3 -57 -10 -10 -23 -5 -16 7 5 7 3 8 -6 3 -11 -7 -10 -10 1
-19 8 -6 14 -30 15 -56 0 -25 -1 -37 -3 -27 -3 9 -9 17 -15 17 -5 0 -8 6 -5
13 3 8 2 19 -2 26 -4 7 -8 -9 -7 -35 0 -26 2 -42 4 -35 3 8 9 6 18 -6 16 -22
18 -79 3 -88 -6 -4 -8 -14 -5 -22 3 -8 2 -11 -3 -8 -5 3 -13 -4 -16 -15 -5
-17 -10 -19 -21 -9 -12 10 -13 6 -7 -21 4 -24 3 -31 -5 -26 -8 5 -10 1 -5 -10
5 -14 3 -16 -11 -11 -14 5 -17 3 -12 -8 4 -12 0 -14 -19 -9 -16 4 -25 2 -25
-6 0 -7 7 -10 15 -6 8 3 15 1 15 -5 0 -16 -31 -23 -40 -9 -4 7 -13 9 -20 5 -9
-6 -7 -11 8 -19 15 -8 19 -15 12 -26 -8 -12 -10 -12 -16 3 -3 9 -10 15 -14 12
-4 -2 -15 4 -25 15 -10 11 -24 20 -30 20 -18 0 -46 -46 -39 -64 8 -20 23 -21
30 -2 8 21 34 28 34 10 0 -8 -4 -12 -10 -9 -6 3 -7 -1 -4 -9 4 -11 0 -16 -10
-16 -9 0 -16 -6 -16 -14 0 -18 -39 -28 -79 -20 -19 4 -31 2 -31 -4 0 -5 9 -8
20 -5 11 3 20 0 20 -6 0 -6 -7 -8 -17 -4 -10 4 -14 2 -10 -4 5 -7 0 -9 -13 -6
-15 4 -20 0 -20 -16 0 -11 1 -21 3 -21 23 0 116 42 167 76 59 39 174 144 157
144 -4 0 1 9 11 20 26 31 72 153 62 165 -5 6 -7 26 -6 45 1 19 -3 41 -9 49 -7
11 -7 13 1 8 7 -4 10 2 8 18 -1 17 2 23 9 19 8 -5 7 -2 0 7 -8 7 -12 35 -11
64 l2 50 3 -47 c2 -27 8 -48 13 -48 9 0 7 -26 -3 -36 -12 -12 -8 -26 6 -18 8
5 8 2 -2 -9 -12 -15 -11 -17 3 -17 12 0 16 10 17 38 1 20 1 41 0 46 -1 6 -4
24 -5 40 -3 32 -22 109 -33 136 -4 8 -7 17 -8 20 -5 21 -39 80 -46 80 -5 0 -9
7 -9 15 0 8 -3 15 -7 15 -5 0 -19 16 -32 36 -19 28 -22 37 -11 44 19 12 -93
91 -187 131 -70 30 -89 33 -193 36 -63 2 -121 0 -128 -5z m483 -142 c10 -11
13 -20 7 -20 -6 0 -14 5 -17 10 -4 6 -11 8 -16 5 -5 -4 -9 1 -9 9 0 22 13 20
35 -4z m-95 -815 c0 -8 -7 -15 -15 -15 -8 0 -15 -8 -15 -17 0 -12 -3 -14 -11
-6 -8 8 -6 17 8 31 22 25 33 27 33 7z m50 -37 c0 -4 -8 -12 -19 -17 -16 -9
-18 -6 -17 18 1 24 3 26 19 17 9 -6 17 -14 17 -18z"/>
<path d="M940 1668 c-30 -11 -64 -28 -75 -36 l-20 -14 20 7 c11 4 46 17 77 29
54 20 82 37 62 35 -5 0 -34 -9 -64 -21z"/>
<path d="M1117 1653 c10 -3 10 -10 1 -26 -10 -19 -9 -20 4 -9 9 7 22 10 31 6
8 -3 18 0 22 7 5 7 3 10 -6 7 -8 -3 -20 1 -27 9 -7 7 -19 13 -25 12 -9 0 -8
-2 0 -6z"/>
<path d="M890 1619 c-30 -15 -54 -33 -53 -38 2 -6 -3 -8 -10 -6 -6 3 -39 -21
-72 -51 -36 -34 -55 -58 -47 -61 6 -3 9 -10 5 -16 -4 -7 1 -6 10 2 18 15 23
26 7 16 -5 -3 -10 -2 -10 2 0 10 21 33 30 33 9 0 6 -32 -4 -49 -7 -10 -4 -11
11 -2 11 6 23 7 27 3 4 -3 4 2 0 12 -5 13 -4 17 4 12 6 -3 13 -2 17 4 8 14
-18 13 -32 -1 -8 -8 -11 -5 -10 12 2 23 37 70 37 50 0 -6 -4 -13 -10 -16 -16
-10 -12 -25 5 -19 8 4 15 13 15 21 0 9 6 13 15 10 8 -4 17 -2 20 3 4 6 1 10
-6 10 -20 0 43 44 65 46 12 1 29 -3 40 -8 12 -7 16 -7 12 0 -3 6 -2 13 3 16
10 6 3 47 -8 45 -3 -1 -31 -14 -61 -30z"/>
<path d="M1650 1632 c0 -5 8 -16 17 -23 14 -12 16 -12 8 0 -5 9 -4 12 3 7 6
-3 13 -2 17 4 3 5 2 10 -4 10 -5 0 -16 3 -25 6 -9 3 -16 2 -16 -4z"/>
<path d="M1720 1622 c0 -5 -9 -12 -21 -15 -17 -5 -19 -9 -9 -27 6 -11 15 -18
21 -14 6 4 6 11 -2 20 -7 8 -7 14 -1 14 14 0 25 -32 13 -39 -6 -4 -6 -12 -2
-20 6 -10 10 -10 16 -2 5 8 11 9 19 2 9 -8 13 -7 13 4 0 8 -4 12 -8 9 -9 -5
-29 28 -29 48 0 9 3 9 10 -2 5 -8 10 -10 10 -4 0 6 -7 17 -15 24 -8 7 -15 8
-15 2z"/>
<path d="M348 1613 c7 -3 16 -2 19 1 4 3 -2 6 -13 5 -11 0 -14 -3 -6 -6z"/>
<path d="M1910 1610 c-18 -12 -2 -12 25 0 13 6 15 9 5 9 -8 0 -22 -4 -30 -9z"/>
<path d="M385 1600 c3 -5 8 -10 11 -10 2 0 4 5 4 10 0 6 -5 10 -11 10 -5 0 -7
-4 -4 -10z"/>
<path d="M1332 1585 c0 -16 2 -22 5 -12 2 9 2 23 0 30 -3 6 -5 -1 -5 -18z"/>
<path d="M1768 1590 c-16 -15 -16 -16 3 -17 11 -1 17 2 14 8 -4 5 1 9 9 9 8 0
17 4 20 8 9 14 -30 8 -46 -8z"/>
<path d="M660 1585 c-20 -24 -6 -28 15 -5 10 11 13 20 8 20 -6 0 -16 -7 -23
-15z"/>
<path d="M1647 1593 c-7 -10 51 -93 65 -93 17 0 6 27 -25 64 -19 22 -36 35
-40 29z"/>
<path d="M460 1586 c0 -2 7 -7 16 -10 8 -3 12 -2 9 4 -6 10 -25 14 -25 6z"/>
<path d="M900 1580 c-8 -5 -17 -7 -20 -5 -3 1 -12 -4 -20 -13 -13 -14 -12 -15
5 -8 16 6 17 5 8 -5 -9 -9 -9 -16 -2 -25 9 -11 15 -10 35 3 13 8 24 12 24 9 0
-4 9 -2 20 4 11 6 18 15 15 20 -4 6 -16 3 -29 -5 -19 -13 -25 -13 -34 -2 -9
11 -8 13 6 13 9 -1 18 3 20 9 5 13 -10 16 -28 5z"/>
<path d="M1380 1570 c0 -19 3 -21 12 -12 9 9 9 15 0 24 -9 9 -12 7 -12 -12z"/>
<path d="M1816 1556 c-4 -18 -16 -42 -28 -52 -12 -11 -18 -14 -14 -7 6 11 -30
40 -39 31 -2 -2 12 -28 31 -58 19 -30 40 -74 46 -97 5 -24 14 -41 18 -38 5 3
6 -5 2 -17 -3 -14 -2 -19 6 -14 14 8 16 46 3 46 -5 0 -9 10 -10 23 -1 42 -4
57 -13 57 -5 0 -6 5 -3 10 3 6 -1 17 -9 26 -20 19 -21 38 -2 31 11 -4 13 -1 9
10 -5 12 -3 14 7 8 10 -6 12 -4 6 11 -6 15 -5 16 5 7 10 -10 10 -18 1 -38 -17
-36 -14 -45 4 -15 10 17 13 18 9 5 -16 -45 -16 -53 -3 -66 7 -8 13 -24 12 -36
-1 -12 3 -20 8 -16 6 3 7 -4 3 -18 -4 -17 -3 -20 3 -10 8 11 10 11 15 0 4 -10
6 -10 6 -1 1 6 7 12 15 12 9 0 12 -7 9 -20 -3 -11 -10 -17 -15 -14 -6 4 -7 -2
-3 -16 5 -15 3 -20 -3 -16 -6 3 -14 1 -18 -6 -4 -7 -4 -10 1 -6 4 4 16 3 26
-3 15 -7 17 -6 13 6 -4 8 -2 15 3 15 5 0 9 -8 10 -18 1 -15 -5 -18 -33 -17
-42 3 -49 8 -29 25 8 7 15 20 14 29 0 10 -2 11 -6 4 -2 -7 -11 -13 -19 -13 -8
0 -14 -10 -15 -22 0 -21 -1 -21 -8 -4 -7 17 -8 18 -14 3 -4 -11 2 -20 20 -29
15 -7 29 -19 31 -27 3 -8 0 -11 -5 -8 -15 9 -9 -32 7 -46 10 -10 11 -9 5 2 -6
10 -4 12 6 6 12 -8 12 -6 0 8 -9 12 -10 17 -2 17 7 0 10 4 6 9 -3 5 0 13 6 17
8 4 7 9 -2 15 -11 7 -10 9 4 9 19 0 22 -11 6 -27 -7 -7 -7 -13 -1 -17 23 -14
-2 -52 -30 -47 -9 1 -10 -9 -8 -64 1 -22 -3 -60 -9 -85 -6 -28 -6 -49 0 -54
16 -17 10 -42 -16 -64 -23 -20 -36 -74 -17 -71 4 1 9 1 12 -1 24 -9 50 -8 50
3 0 8 4 7 10 -3 8 -13 10 -13 10 -1 0 12 3 12 12 3 10 -10 10 -15 -2 -22 -8
-5 -10 -10 -5 -10 29 0 35 17 15 40 -11 13 -20 17 -20 10 0 -7 -3 -11 -6 -7
-3 3 -3 15 1 28 6 17 9 19 17 8 7 -10 8 -8 3 7 -4 15 0 24 11 28 16 6 16 8 0
25 -16 17 -15 19 5 32 l21 14 -21 19 c-25 23 -28 15 -4 -9 16 -16 15 -17 -3
-13 -10 2 -18 9 -17 16 2 7 -7 11 -19 9 -14 -1 -23 4 -26 16 -2 10 3 17 11 17
31 0 37 25 17 63 -19 35 -19 36 0 42 22 7 34 37 25 65 -5 15 -3 18 9 14 9 -3
13 -10 10 -16 -3 -5 -3 -20 0 -33 l6 -24 32 30 c27 24 42 29 88 31 l55 2 -52
3 c-29 2 -62 -1 -73 -7 -16 -9 -25 -8 -37 1 -13 12 -13 15 7 31 12 10 27 15
34 11 6 -3 6 -1 -1 8 -10 10 -16 10 -25 1 -15 -15 -31 -16 -22 -1 3 6 0 15 -7
20 -12 7 -12 9 0 9 11 0 10 4 -4 14 -12 8 -16 20 -12 35 3 14 -1 24 -11 30
-15 9 -15 13 -4 32 12 19 12 21 0 16 -17 -6 -42 29 -32 45 4 6 1 9 -7 6 -8 -3
-12 -14 -11 -24 3 -14 1 -16 -8 -8 -9 9 -9 17 0 34 10 18 9 31 -5 67 -9 24
-14 47 -11 50 3 4 6 -1 6 -10 0 -9 5 -17 10 -17 14 0 13 13 -2 28 -19 19 -25
15 -32 -22z m70 -178 c4 -32 4 -32 -11 -11 -8 12 -12 29 -9 38 9 22 16 12 20
-27z m49 -148 c3 -5 1 -10 -4 -10 -6 0 -11 5 -11 10 0 6 2 10 4 10 3 0 8 -4
11 -10z m12 -62 c-3 -7 -5 -2 -5 12 0 14 2 19 5 13 2 -7 2 -19 0 -25z m-62
-87 c3 -5 1 -12 -5 -16 -5 -3 -10 1 -10 9 0 18 6 21 15 7z m10 -121 c5 9 4 11
-3 6 -7 -4 -12 -2 -12 4 0 7 6 10 13 7 6 -2 12 -11 12 -20 0 -8 4 -19 8 -23
17 -17 5 -25 -13 -9 -20 18 -29 8 -10 -11 17 -17 0 -46 -22 -41 -19 5 -19 5
-2 -14 14 -16 15 -22 4 -32 -10 -10 -11 -9 -5 3 8 13 6 13 -7 2 -10 -8 -19 -9
-22 -3 -4 5 -2 12 4 16 6 4 8 11 4 16 -9 14 15 39 32 32 16 -6 19 13 3 22 -6
4 -8 13 -5 21 3 7 1 16 -4 19 -6 4 -10 11 -10 18 0 6 6 3 13 -8 11 -14 16 -15
22 -5z"/>
<path d="M1880 1580 c-9 -6 -10 -10 -3 -10 6 0 15 5 18 10 8 12 4 12 -15 0z"/>
<path d="M400 1569 c0 -7 3 -9 7 -6 3 4 12 2 20 -5 12 -9 33 -4 22 6 -14 12
-49 16 -49 5z"/>
<path d="M1297 1566 c-4 -10 -1 -13 9 -9 15 6 19 23 5 23 -5 0 -11 -7 -14 -14z"/>
<path d="M1318 1543 c7 -3 16 -2 19 1 4 3 -2 6 -13 5 -11 0 -14 -3 -6 -6z"/>
<path d="M1786 1533 c-6 -14 -5 -15 5 -6 7 7 10 15 7 18 -3 3 -9 -2 -12 -12z"/>
<path d="M1860 1520 c0 -6 7 -10 15 -10 8 0 15 2 15 4 0 2 -7 6 -15 10 -8 3
-15 1 -15 -4z"/>
<path d="M1700 1479 c-14 -11 -20 -18 -14 -15 20 10 103 -171 105 -232 1 -22
3 -20 11 13 5 22 10 52 10 66 1 25 -71 189 -82 189 -3 0 -16 -10 -30 -21z m52
-61 c18 -35 31 -66 30 -70 -1 -5 2 -8 7 -8 12 0 20 -46 10 -62 -7 -10 -9 -8
-9 6 0 10 -18 56 -40 103 -42 89 -43 93 -35 93 3 0 19 -28 37 -62z"/>
<path d="M1880 1483 c5 -2 10 -12 10 -21 0 -9 4 -23 9 -30 7 -11 9 -10 14 3 4
9 3 13 -2 10 -5 -3 -11 5 -13 17 -2 12 -9 23 -16 24 -7 1 -8 0 -2 -3z"/>
<path d="M1478 1463 c7 -3 16 -2 19 1 4 3 -2 6 -13 5 -11 0 -14 -3 -6 -6z"/>
<path d="M1510 1448 c0 -19 2 -20 10 -8 13 19 13 30 0 30 -5 0 -10 -10 -10
-22z"/>
<path d="M385 1450 c-4 -6 -1 -9 6 -8 21 5 17 -45 -5 -64 l-21 -18 22 3 c29 4
33 9 38 46 3 23 -1 33 -15 41 -13 7 -21 7 -25 0z"/>
<path d="M828 1453 c7 -3 16 -2 19 1 4 3 -2 6 -13 5 -11 0 -14 -3 -6 -6z"/>
<path d="M1645 1449 c-4 -6 -4 -13 -1 -16 3 -4 6 0 6 8 0 8 6 4 16 -9 8 -12
22 -22 31 -22 12 0 9 7 -11 25 -31 28 -32 29 -41 14z"/>
<path d="M324 1422 c1 -15 5 -33 9 -39 5 -9 2 -13 -9 -13 -10 0 -14 -3 -11 -6
10 -10 65 16 71 33 4 10 2 13 -8 10 -9 -4 -12 0 -9 13 3 10 0 21 -6 24 -6 4
-8 -2 -6 -14 3 -14 0 -20 -8 -17 -7 2 -12 9 -12 15 0 5 -3 13 -6 16 -3 3 -5
-7 -5 -22z m36 -34 c0 -13 -23 -5 -28 10 -2 7 2 10 12 6 9 -3 16 -11 16 -16z"/>
<path d="M625 1440 c-3 -5 -2 -17 3 -27 9 -15 11 -14 20 4 15 27 -7 49 -23 23z"/>
<path d="M1933 1398 c1 -24 6 -34 15 -30 8 3 10 12 6 26 -11 38 -23 40 -21 4z"/>
<path d="M1969 1398 c4 -28 6 -29 9 -9 2 13 0 27 -5 32 -6 6 -7 -3 -4 -23z"/>
<path d="M602 1403 c-18 -33 -62 -154 -67 -186 -14 -76 -7 -213 14 -282 23
-80 76 -173 128 -226 21 -23 31 -39 24 -43 -17 -11 -82 67 -126 150 -14 27
-23 38 -19 24 4 -14 18 -42 31 -63 14 -22 23 -41 20 -43 -4 -4 -31 34 -71 99
-9 15 -20 26 -24 23 -4 -2 -8 9 -9 24 -3 43 -30 100 -47 100 -30 0 59 -214
126 -303 13 -18 14 -17 14 2 0 11 -3 19 -6 18 -3 -1 -5 3 -5 8 0 6 4 9 9 7 5
-2 12 2 16 8 4 7 17 -3 34 -24 15 -20 22 -36 15 -36 -7 0 -9 -3 -6 -6 3 -4 2
-14 -3 -24 -7 -13 -2 -24 20 -45 25 -24 59 -28 45 -4 -4 5 -1 9 5 9 6 0 8 5 5
10 -10 16 2 12 42 -16 221 -151 526 -152 732 -3 68 48 40 45 -37 -5 -87 -57
-105 -64 -217 -83 -143 -25 -263 -8 -394 54 -38 17 -134 83 -139 95 -6 13 -2
23 8 24 6 1 12 2 15 3 2 0 -10 16 -28 34 -72 71 -129 173 -147 262 -7 33 -14
67 -17 75 -14 42 9 244 29 256 6 4 8 -1 4 -12 -26 -88 -35 -227 -16 -239 6 -4
8 -15 5 -26 -4 -11 -2 -19 5 -19 6 0 9 -4 6 -9 -3 -5 -2 -22 3 -37 5 -16 12
-41 15 -56 4 -16 12 -27 19 -25 7 1 11 -7 10 -19 -2 -15 3 -21 15 -19 26 2 52
16 52 27 0 5 -4 7 -9 3 -16 -9 -25 16 -10 27 11 8 10 9 -3 4 -13 -4 -18 0 -19
17 -1 21 -1 21 -8 -2 -5 -19 -8 -21 -17 -10 -13 16 -29 60 -26 72 1 4 -2 17
-8 27 -6 12 -7 20 -1 20 5 0 11 -7 15 -15 3 -9 12 -12 23 -8 16 6 16 5 5 -10
-10 -12 -11 -20 -2 -34 9 -16 10 -15 4 6 -4 15 -2 21 4 17 7 -4 10 7 8 31 -1
21 -6 36 -11 33 -6 -3 -9 -11 -9 -17 3 -24 -16 -13 -22 12 -3 14 -10 25 -16
25 -5 0 -6 -6 -3 -12 4 -7 0 -5 -9 5 -27 34 -6 203 36 294 14 30 17 47 10 59
-9 16 -10 16 -20 -3z m23 -513 c4 -6 11 -7 17 -4 6 4 8 2 4 -4 -3 -5 0 -12 6
-15 7 -2 10 -7 7 -11 -4 -4 -18 4 -32 18 -15 14 -22 26 -17 26 5 0 12 -5 15
-10z m-66 -125 c0 -5 -8 6 -19 25 -11 19 -19 40 -19 45 0 6 8 -6 19 -25 11
-19 19 -39 19 -45z m155 -160 c-3 -8 -11 -16 -18 -18 -15 -6 -40 30 -26 38 5
3 6 13 3 23 -5 13 0 11 20 -7 14 -13 23 -29 21 -36z"/>
<path d="M675 621 c-6 -11 9 -23 19 -14 9 9 7 23 -3 23 -6 0 -12 -4 -16 -9z"/>
<path d="M690 1412 c0 -17 21 -25 31 -13 5 6 6 9 3 6 -4 -3 -13 0 -21 6 -9 8
-13 8 -13 1z"/>
<path d="M1547 1400 c10 -11 21 -20 25 -20 5 0 3 9 -4 20 -7 11 -18 20 -25 20
-9 0 -7 -6 4 -20z"/>
<path d="M1682 1361 c38 -80 61 -198 53 -281 -6 -73 -23 -156 -37 -182 -8 -18
-6 -19 24 -22 6 -1 12 8 13 19 1 11 10 55 19 97 19 93 20 118 4 118 -10 0 -10
2 -1 8 21 13 6 143 -23 210 -8 18 -12 37 -8 44 4 7 3 8 -4 4 -7 -4 -12 -1 -12
7 0 8 -8 17 -17 21 -10 3 -23 8 -29 11 -6 3 2 -21 18 -54z"/>
<path d="M440 1360 c0 -5 -6 -9 -12 -7 -9 1 -14 -11 -14 -35 -1 -21 -9 -45
-18 -54 -13 -12 -14 -19 -5 -30 19 -23 26 -16 41 44 8 31 18 65 23 75 4 10 3
17 -4 17 -6 0 -11 -4 -11 -10z"/>
<path d="M714 1350 c0 -11 1 -20 3 -20 1 0 7 9 13 20 8 15 8 20 -3 20 -7 0
-13 -9 -13 -20z"/>
<path d="M342 1353 c-6 -2 -10 -9 -6 -14 8 -13 -10 -11 -24 3 -9 9 -12 9 -12
0 0 -6 11 -14 25 -18 30 -8 28 -24 -6 -41 -23 -12 -23 -13 -2 -13 27 0 36 14
38 57 0 18 1 33 0 32 0 0 -6 -3 -13 -6z"/>
<path d="M377 1346 c-9 -10 -15 -22 -12 -27 7 -11 -22 -69 -35 -69 -6 0 -10
-5 -10 -12 0 -6 9 -3 20 7 24 22 25 17 5 -21 -8 -16 -15 -23 -15 -16 0 8 -16
12 -46 12 -26 0 -43 -4 -39 -10 3 -5 12 -7 20 -3 9 3 22 0 29 -6 11 -9 15 -9
19 1 4 10 6 10 6 1 1 -7 8 -13 16 -13 8 0 15 -4 15 -10 0 -14 -13 -13 -28 2
-9 9 -12 9 -12 1 0 -7 5 -15 10 -18 6 -4 8 -10 5 -15 -3 -5 -1 -11 4 -15 6 -3
15 4 21 15 6 11 15 18 21 15 15 -10 10 -32 -9 -37 -14 -4 -18 -14 -17 -35 1
-16 -3 -30 -10 -30 -6 0 -12 9 -12 19 -1 10 2 16 8 13 15 -10 10 12 -7 29 -8
9 -12 21 -8 28 6 9 3 9 -9 0 -14 -12 -15 -16 -2 -28 10 -11 12 -21 5 -39 -11
-28 7 -49 30 -35 26 17 34 11 15 -10 -10 -12 -26 -18 -34 -15 -9 3 -3 -5 13
-17 16 -12 39 -22 50 -23 23 0 34 -17 15 -24 -7 -2 -9 1 -5 8 5 7 1 8 -11 4
-14 -6 -13 -9 12 -19 26 -12 27 -13 8 -14 -13 0 -23 -5 -23 -11 0 -6 6 -9 13
-6 8 3 20 1 28 -4 11 -7 11 -9 -3 -9 -9 0 -24 -3 -33 -6 -9 -4 -15 -3 -13 2 5
19 -22 74 -37 74 -10 0 -13 5 -9 13 5 9 3 9 -7 -1 -12 -11 -12 -14 1 -22 8 -5
18 -6 22 -4 4 3 8 -3 8 -12 0 -14 -3 -15 -12 -6 -16 16 -45 15 -51 -2 -7 -18
3 -56 15 -56 5 0 4 9 -2 20 -16 30 -4 40 30 28 33 -11 55 -34 23 -24 -14 4
-20 2 -20 -9 0 -10 6 -13 19 -9 22 7 36 -22 18 -39 -10 -10 -11 -7 -5 13 6 19
5 22 -5 14 -7 -7 -9 -21 -5 -33 l7 -22 23 23 c17 17 21 26 13 35 -8 10 -5 13
13 13 16 0 20 -3 11 -8 -10 -7 -8 -13 6 -30 11 -12 22 -19 26 -15 3 3 6 -1 6
-9 0 -11 -8 -15 -25 -14 -24 1 -37 16 -14 16 5 0 7 5 4 10 -11 18 -24 1 -23
-30 1 -25 4 -28 19 -20 14 8 19 6 24 -10 3 -11 11 -20 16 -20 6 0 5 9 -1 23
-10 20 -9 19 9 -3 11 -14 16 -26 11 -28 -6 -2 -10 -10 -10 -18 0 -8 -5 -14
-11 -14 -5 0 -7 -4 -4 -10 3 -5 1 -10 -4 -10 -6 0 -11 7 -11 15 0 11 -5 10
-21 -6 -19 -19 -20 -21 -3 -33 9 -7 14 -18 11 -23 -10 -16 21 -25 44 -13 10 6
19 13 19 16 0 3 -5 2 -12 -2 -8 -5 -9 -2 -5 10 4 10 3 15 -3 11 -12 -8 -50 3
-50 15 0 12 60 6 68 -7 5 -8 13 -9 22 -3 20 13 30 12 30 0 0 -5 -8 -10 -17
-11 -15 0 -15 -2 2 -8 19 -8 18 -9 -4 -12 -14 -2 -26 -11 -29 -19 -4 -12 -2
-13 9 -2 16 14 43 16 34 2 -9 -15 22 -42 49 -44 12 0 23 -6 23 -12 0 -26 -82
6 -91 36 -2 8 -4 1 -5 -17 0 -17 3 -35 9 -38 5 -3 7 0 4 9 -5 13 -2 13 18 4
25 -12 33 -38 16 -49 -6 -4 -8 -15 -6 -25 4 -16 7 -15 16 9 13 31 27 37 19 7
-3 -11 -1 -23 4 -26 16 -10 10 -28 -21 -61 -16 -17 -26 -34 -21 -37 5 -3 12 1
15 10 3 8 11 12 17 8 7 -4 9 -3 6 3 -4 6 0 16 8 23 8 7 15 9 15 4 0 -19 23 17
25 40 3 26 -8 35 -20 16 -4 -6 -10 -8 -16 -5 -5 3 5 19 22 35 34 34 39 36 39
14 0 -8 -4 -13 -9 -10 -10 7 -9 -20 2 -30 4 -4 7 -16 7 -26 0 -10 5 -18 10
-18 12 0 13 27 1 34 -11 7 -2 46 10 46 6 0 12 -7 15 -15 4 -8 11 -12 17 -8 6
3 7 1 3 -5 -4 -7 -3 -12 3 -12 23 0 18 18 -9 38 -16 12 -31 22 -34 22 -2 0
-19 15 -37 32 -92 93 -163 211 -194 328 -10 36 -22 69 -26 75 -12 12 -11 28 0
21 5 -4 6 9 1 29 -4 19 -6 36 -4 38 3 2 -2 10 -11 17 -20 16 -19 47 1 58 20
11 14 47 -8 46 -23 -2 -34 57 -13 73 11 7 15 23 13 49 -3 36 -4 37 -21 20z m4
-49 c-10 -9 -11 -8 -5 6 3 10 9 15 12 12 3 -3 0 -11 -7 -18z m-15 -82 c-3 -8
4 -21 17 -30 12 -8 16 -15 10 -15 -16 0 -43 29 -43 46 0 8 5 14 11 14 6 0 9
-7 5 -15z m26 -129 c11 -20 10 -20 -7 -6 -17 13 -16 10 3 -23 20 -34 20 -38 5
-35 -10 2 -18 10 -18 18 0 8 -5 22 -10 30 -5 8 -10 22 -10 31 -2 23 22 13 37
-15z m-17 -76 c-3 -5 -13 -6 -21 -3 -12 4 -13 8 -3 14 15 9 32 2 24 -11z m131
-302 c-13 -9 -16 -6 -21 22 -4 22 -4 22 14 4 12 -13 14 -21 7 -26z m-46 -48
c0 -5 -4 -10 -10 -10 -5 0 -10 5 -10 10 0 6 5 10 10 10 6 0 10 -4 10 -10z
m114 -35 c-4 -8 -10 -12 -15 -9 -14 8 -10 24 6 24 9 0 12 -6 9 -15z m51 -68
c-17 -6 -22 -13 -18 -24 5 -13 2 -12 -13 3 -19 18 -12 40 8 28 5 -3 11 2 14
10 5 12 9 13 19 3 11 -10 9 -14 -10 -20z"/>
<path d="M1603 1318 c-12 -20 -12 -39 0 -31 7 4 8 0 4 -11 -4 -10 -3 -15 4
-11 6 4 8 -3 3 -22 l-6 -28 17 23 c15 20 15 24 0 38 -11 12 -13 20 -5 29 7 9
7 15 1 19 -5 4 -13 1 -18 -6z"/>
<path d="M232 1304 c-7 -8 -8 -14 -3 -14 10 0 25 19 20 25 -2 1 -10 -3 -17
-11z"/>
<path d="M688 1313 c7 -3 16 -2 19 1 4 3 -2 6 -13 5 -11 0 -14 -3 -6 -6z"/>
<path d="M305 1300 c-19 -8 -19 -9 3 -9 12 -1 22 4 22 9 0 6 -1 10 -2 9 -2 0
-12 -4 -23 -9z"/>
<path d="M188 1293 c7 -3 16 -2 19 1 4 3 -2 6 -13 5 -11 0 -14 -3 -6 -6z"/>
<path d="M625 1290 c-4 -6 -10 -8 -15 -5 -9 5 -30 -71 -30 -107 l1 -23 13 24
c7 13 11 33 8 43 -3 12 4 27 17 39 11 11 21 15 21 10 0 -6 -7 -14 -16 -19 -14
-8 -15 -15 -6 -48 l11 -39 -2 35 c-1 19 3 34 8 33 6 -1 11 14 12 33 3 33 -9
45 -22 24z"/>
<path d="M1965 1280 c-3 -5 -1 -10 4 -10 6 0 11 5 11 10 0 6 -2 10 -4 10 -3 0
-8 -4 -11 -10z"/>
<path d="M1813 1229 c4 -13 7 -46 7 -74 0 -47 1 -48 13 -25 18 37 14 100 -8
113 -16 8 -17 7 -12 -14z"/>
<path d="M108 1233 c7 -3 16 -2 19 1 4 3 -2 6 -13 5 -11 0 -14 -3 -6 -6z"/>
<path d="M158 1228 c5 -5 16 -8 23 -6 8 3 3 7 -10 11 -17 4 -21 3 -13 -5z"/>
<path d="M2208 1213 c6 -2 18 -2 25 0 6 3 1 5 -13 5 -14 0 -19 -2 -12 -5z"/>
<path d="M472 1180 c0 -19 2 -27 5 -17 2 9 2 25 0 35 -3 9 -5 1 -5 -18z"/>
<path d="M1593 1165 c0 -27 2 -38 4 -22 2 15 2 37 0 50 -2 12 -4 0 -4 -28z"/>
<path d="M266 1184 c-3 -9 -2 -22 2 -31 6 -10 9 -5 9 16 0 35 -2 38 -11 15z"/>
<path d="M1802 1124 c-1 -44 -11 -114 -22 -155 -30 -116 -32 -129 -15 -91 26
57 46 175 42 253 l-3 74 -2 -81z"/>
<path d="M601 1153 c-1 -25 -16 -31 -24 -10 -4 9 -6 9 -6 0 -1 -17 19 -27 31
-15 5 5 8 18 5 28 -4 16 -5 15 -6 -3z"/>
<path d="M407 1143 c-10 -10 -8 -33 2 -33 6 0 9 9 8 20 -1 23 -1 22 -10 13z"/>
<path d="M1906 1135 c-21 -16 -13 -35 14 -35 10 0 22 -5 25 -11 4 -6 0 -9 -11
-7 -14 2 -19 -4 -20 -21 -1 -13 -12 -32 -25 -43 l-24 -18 28 10 c15 5 27 7 27
4 0 -4 6 -1 13 5 8 6 17 8 20 4 4 -3 7 -1 7 5 0 6 -4 14 -10 17 -5 3 -10 1
-10 -4 0 -6 -5 -11 -11 -11 -8 0 -7 5 1 15 7 9 20 13 28 10 12 -4 12 -2 4 8
-14 16 -6 28 13 21 8 -3 11 -14 7 -27 -3 -12 -2 -19 2 -16 4 3 9 28 12 55 4
44 3 47 -10 29 -10 -15 -11 -22 -3 -27 7 -4 2 -6 -10 -6 -14 2 -20 8 -18 20 2
10 0 18 -6 18 -5 0 -9 -4 -9 -10 0 -5 -8 -10 -17 -10 -14 0 -15 2 -4 9 7 5 12
13 10 19 -3 7 -11 6 -23 -3z m29 -65 c3 -5 1 -10 -4 -10 -6 0 -11 5 -11 10 0
6 2 10 4 10 3 0 8 -4 11 -10z"/>
<path d="M1963 1131 c0 -11 5 -17 9 -15 11 7 10 34 -1 34 -6 0 -9 -9 -8 -19z"/>
<path d="M1840 1099 c0 -19 -5 -40 -11 -46 -7 -7 -7 -22 -1 -44 8 -31 9 -28
16 39 4 41 5 76 2 80 -3 3 -6 -10 -6 -29z"/>
<path d="M1821 1084 c0 -11 3 -14 6 -6 3 7 2 16 -1 19 -3 4 -6 -2 -5 -13z"/>
<path d="M496 1081 c-4 -7 -5 -15 -2 -18 9 -9 19 4 14 18 -4 11 -6 11 -12 0z"/>
<path d="M1670 1038 c0 -7 -3 -24 -6 -38 -5 -17 -3 -22 3 -15 15 15 25 65 13
65 -5 0 -10 -6 -10 -12z"/>
<path d="M505 1013 c4 -13 8 -34 11 -47 2 -14 9 -35 14 -48 9 -20 10 -20 4 7
-3 17 -8 41 -10 54 -3 14 -10 32 -15 40 -8 13 -9 11 -4 -6z"/>
<path d="M1978 1023 c7 -3 16 -2 19 1 4 3 -2 6 -13 5 -11 0 -14 -3 -6 -6z"/>
<path d="M275 1000 c-3 -5 1 -10 9 -10 9 0 16 5 16 10 0 6 -4 10 -9 10 -6 0
-13 -4 -16 -10z"/>
<path d="M1811 995 c-4 -48 -48 -160 -62 -158 -8 1 -21 -13 -30 -32 -9 -19
-13 -35 -8 -35 5 0 9 4 9 10 0 5 6 7 14 4 10 -4 7 -12 -13 -33 -38 -41 -66
-84 -63 -96 2 -5 0 -7 -4 -2 -9 9 -74 -52 -74 -70 0 -7 4 -13 9 -13 14 0 32
26 23 35 -4 5 -2 5 5 2 21 -13 142 149 135 182 -2 8 1 10 9 5 9 -5 10 -2 6 9
-3 10 -2 17 4 17 6 0 7 5 4 10 -3 6 -1 10 4 10 6 0 11 5 11 10 0 6 11 32 24
59 13 27 20 53 16 58 -5 4 -10 17 -13 28 l-5 20 -1 -20z m-70 -192 c-12 -20
-14 -14 -5 12 4 9 9 14 11 11 3 -2 0 -13 -6 -23z"/>
<path d="M1604 982 c-14 -10 -18 -92 -4 -92 6 0 9 4 6 9 -4 5 0 12 6 14 10 4
10 6 1 6 -7 1 -13 8 -13 16 0 18 16 20 23 3 4 -10 6 -10 6 0 1 7 -6 15 -14 18
-8 4 -12 10 -9 15 3 5 10 6 16 3 7 -4 8 -2 4 4 -8 14 -8 14 -22 4z"/>
<path d="M1960 979 c0 -5 5 -7 10 -4 6 3 10 1 10 -4 0 -6 4 -11 10 -11 5 0 7
7 4 15 -7 17 -34 21 -34 4z"/>
<path d="M1837 933 c-4 -3 -7 -11 -7 -17 0 -6 5 -5 12 2 6 6 9 14 7 17 -3 3
-9 2 -12 -2z"/>
<path d="M765 869 c-4 -12 -10 -17 -14 -11 -4 6 -10 6 -17 -3 -9 -9 -3 -12 30
-12 22 -1 33 1 23 4 -12 3 -16 10 -12 24 4 10 4 19 1 19 -2 0 -8 -10 -11 -21z"/>
<path d="M319 863 c0 -5 -2 -17 -3 -29 -1 -11 2 -21 8 -21 6 0 11 13 11 29 0
24 -13 42 -16 21z"/>
<path d="M692 840 c-12 -25 -12 -34 -1 -48 7 -9 2 -7 -12 6 -47 42 -50 22 -6
-36 25 -32 52 -64 61 -71 11 -10 13 -17 6 -26 -13 -16 36 -63 50 -49 7 7 2 15
-15 24 -14 7 -25 17 -25 22 0 5 21 -5 46 -22 65 -45 160 -86 229 -99 67 -13
178 -13 215 -1 15 5 -5 6 -51 3 -100 -7 -203 11 -286 52 -95 46 -109 58 -91
76 18 19 18 61 0 79 -14 12 -15 10 -9 -18 5 -24 3 -34 -8 -39 -12 -4 -13 -9
-4 -19 21 -25 -5 -14 -40 17 -26 24 -31 33 -21 42 9 8 11 8 7 1 -8 -14 28 -48
41 -40 14 8 8 39 -8 44 -7 3 -10 0 -6 -7 4 -6 2 -11 -3 -11 -15 0 -14 23 2 40
10 12 9 12 -5 1 -10 -7 -18 -10 -18 -5 0 5 -7 1 -14 -8 -12 -17 -14 -17 -31 2
-10 11 -13 20 -7 20 6 0 14 -5 17 -10 7 -12 25 -4 25 11 0 6 -4 7 -10 4 -5 -3
-10 -2 -10 4 0 5 3 11 8 14 4 2 2 2 -5 1 -18 -5 -26 15 -13 31 6 8 10 21 8 30
-2 11 -7 6 -16 -15z"/>
<path d="M1540 860 c0 -5 5 -10 10 -10 6 0 10 5 10 10 0 6 -4 10 -10 10 -5 0
-10 -4 -10 -10z"/>
<path d="M1662 830 c-18 -32 -21 -44 -12 -63 10 -20 10 -21 -3 -4 -16 19 -34
7 -21 -15 4 -6 3 -8 -4 -4 -6 3 -25 -11 -43 -34 -17 -21 -35 -37 -40 -35 -11
7 -21 -13 -13 -26 4 -7 23 6 50 32 24 24 44 40 44 36 0 -3 -18 -24 -40 -45
-21 -22 -37 -42 -33 -45 6 -7 95 88 93 99 -1 4 4 10 11 15 7 4 14 15 15 25 1
9 8 22 15 28 9 8 10 8 4 -3 -5 -9 -4 -12 3 -7 6 4 8 14 5 23 -4 11 -3 14 5 9
8 -5 10 -2 6 8 -4 9 -1 16 6 16 10 0 10 3 0 15 -18 22 -22 19 -48 -25z"/>
<path d="M1507 820 c-3 -12 0 -20 8 -20 8 0 11 8 8 20 -3 11 -7 20 -8 20 -1 0
-5 -9 -8 -20z"/>
<path d="M1536 831 c-4 -5 3 -7 14 -4 23 6 26 13 6 13 -8 0 -17 -4 -20 -9z"/>
<path d="M381 817 c0 -10 -5 -16 -10 -12 -6 3 -14 -3 -20 -12 -7 -12 -10 -13
-11 -4 0 8 -8 4 -19 -10 -11 -13 -17 -28 -14 -33 3 -5 12 2 19 15 7 13 14 20
14 14 0 -5 7 -1 15 9 10 14 15 15 15 6 0 -10 3 -11 11 -3 6 6 9 19 6 29 -4 18
-5 18 -6 1z"/>
<path d="M714 819 c-3 -5 -2 -9 3 -8 4 1 17 1 28 0 15 -1 16 -4 7 -13 -18 -18
-14 -32 5 -17 9 8 18 13 20 12 10 -8 19 -1 19 17 0 25 -13 26 -19 3 -4 -15 -5
-15 -6 -2 -1 18 -47 24 -57 8z"/>
<path d="M1790 806 c0 -24 -80 -134 -138 -192 -34 -33 -52 -58 -46 -62 6 -4
14 -14 17 -22 5 -13 6 -13 6 1 1 16 31 23 31 7 0 -4 -5 -8 -12 -8 -6 0 -9 -2
-6 -5 11 -11 34 6 35 26 2 28 12 37 23 19 6 -10 12 -11 22 -3 7 6 20 9 28 8
10 -2 16 6 16 21 2 30 -4 31 -16 2 -8 -21 -9 -22 -10 -3 -1 18 -2 17 -11 -4
-9 -23 -10 -23 -30 -5 -12 11 -23 17 -24 14 -2 -3 -7 -1 -12 4 -4 5 -3 6 3 3
7 -4 15 0 18 9 4 9 13 13 23 10 20 -6 46 6 43 20 -1 5 4 10 11 13 7 2 9 -1 4
-9 -5 -9 -4 -11 3 -6 7 4 12 14 12 22 0 8 -4 12 -10 9 -17 -10 -11 4 10 25 25
25 26 41 3 33 -15 -5 -16 -3 -6 7 11 12 18 10 44 -9 l31 -23 -4 23 c-2 15 -12
26 -28 30 -14 4 -19 7 -12 8 7 1 11 5 7 10 -3 5 0 13 6 17 8 4 7 9 -2 15 -20
13 -29 11 -29 -5z m50 -66 c0 -5 -2 -10 -4 -10 -3 0 -8 5 -11 10 -3 6 -1 10 4
10 6 0 11 -4 11 -10z m-61 -23 c-2 -1 -13 -9 -24 -17 -19 -14 -19 -14 -6 3 7
9 18 17 24 17 6 0 8 -1 6 -3z m-41 -62 c-6 -13 -16 -21 -21 -18 -8 5 -7 8 1
11 7 2 12 10 12 18 0 8 4 14 10 14 6 0 5 -10 -2 -25z m-72 -83 c1 -7 0 -8 -3
-2 -2 5 -9 8 -14 4 -5 -3 -9 0 -9 6 0 15 23 7 26 -8z"/>
<path d="M2000 799 c0 -5 5 -7 10 -4 6 3 10 8 10 11 0 2 -4 4 -10 4 -5 0 -10
-5 -10 -11z"/>
<path d="M1400 784 c0 -8 5 -12 10 -9 6 3 10 10 10 16 0 5 -4 9 -10 9 -5 0
-10 -7 -10 -16z"/>
<path d="M1848 772 c17 -13 21 -23 15 -37 -5 -16 -1 -14 20 7 29 29 37 49 11
27 -10 -8 -18 -9 -22 -3 -4 6 -16 14 -27 17 -17 6 -17 5 3 -11z"/>
<path d="M397 755 c3 -12 1 -16 -4 -9 -11 15 -45 14 -39 -2 3 -7 0 -15 -7 -18
-17 -7 35 1 55 9 9 4 14 13 11 21 -4 10 0 12 11 8 9 -3 16 -1 16 5 0 6 -11 10
-24 9 -18 -2 -22 -7 -19 -23z"/>
<path d="M1690 751 c0 -5 -30 -41 -66 -80 -36 -39 -61 -71 -56 -71 6 0 34 28
64 63 76 88 82 97 69 97 -6 0 -11 -4 -11 -9z"/>
<path d="M1900 742 c0 -5 7 -9 15 -9 8 0 12 4 9 9 -3 4 -9 8 -15 8 -5 0 -9 -4
-9 -8z"/>
<path d="M158 728 c5 -5 16 -8 23 -6 8 3 3 7 -10 11 -17 4 -21 3 -13 -5z"/>
<path d="M866 722 c-3 -5 1 -9 9 -9 8 0 15 4 15 9 0 4 -4 8 -9 8 -6 0 -12 -4
-15 -8z"/>
<path d="M909 706 c8 -10 9 -16 1 -21 -5 -3 -10 -13 -10 -21 0 -16 45 -20 54
-5 9 14 -4 41 -20 41 -8 0 -14 5 -14 10 0 6 -5 10 -11 10 -8 0 -8 -4 0 -14z
m39 -34 c2 -7 -6 -12 -17 -12 -21 0 -27 11 -14 24 9 9 26 2 31 -12z"/>
<path d="M607 697 c-3 -8 -5 -21 -3 -30 2 -16 36 -53 37 -40 0 4 2 18 4 29 5
27 -29 63 -38 41z m24 -24 c13 -16 12 -17 -3 -4 -17 13 -22 21 -14 21 2 0 10
-8 17 -17z"/>
<path d="M1794 697 c-11 -12 4 -57 19 -57 4 0 3 9 -3 19 -14 26 -13 31 6 31
11 0 14 -5 9 -17 -5 -14 -4 -15 6 -6 10 10 9 15 -1 28 -15 18 -21 18 -36 2z"/>
<path d="M875 690 c3 -5 8 -10 11 -10 2 0 4 5 4 10 0 6 -5 10 -11 10 -5 0 -7
-4 -4 -10z"/>
<path d="M837 669 c-17 -10 -15 -29 4 -29 6 0 8 4 5 8 -2 4 3 8 13 8 10 0 18
-6 18 -13 0 -7 -4 -10 -9 -7 -4 3 -8 1 -8 -4 0 -10 11 -15 104 -49 56 -20 174
-33 231 -25 42 6 51 11 53 31 2 15 0 21 -7 16 -6 -3 -9 -11 -6 -16 4 -5 1 -9
-4 -9 -6 0 -11 7 -11 15 0 13 -3 13 -20 3 -14 -9 -16 -14 -7 -20 8 -5 8 -8 1
-8 -6 0 -17 7 -24 15 -10 13 -9 15 9 15 11 0 21 4 21 10 0 11 -25 3 -54 -16
-15 -11 -21 -10 -34 2 -8 8 -17 12 -21 8 -3 -4 0 -9 7 -11 21 -8 13 -20 -13
-20 -15 0 -25 5 -25 14 0 8 -5 11 -10 8 -6 -4 -7 -12 -4 -18 4 -7 1 -7 -7 1
-12 11 -11 15 5 28 11 8 15 14 10 14 -6 0 -20 -9 -32 -20 -12 -12 -23 -16 -27
-10 -3 6 -17 10 -31 10 -13 0 -24 4 -24 9 0 6 12 6 29 1 16 -4 32 -6 35 -2 9
9 7 40 -3 46 -5 4 -7 -4 -4 -16 5 -22 5 -22 -9 -4 -10 13 -17 15 -22 8 -4 -7
-19 -9 -36 -5 -22 4 -30 2 -31 -8 -1 -8 -4 -4 -7 9 -4 13 -11 23 -16 22 -5 -1
-12 3 -15 8 -4 7 -12 7 -24 1z m93 -49 c0 -5 -2 -10 -4 -10 -3 0 -8 5 -11 10
-3 6 -1 10 4 10 6 0 11 -4 11 -10z m235 -50 c3 -5 -1 -10 -9 -10 -9 0 -16 5
-16 10 0 6 4 10 9 10 6 0 13 -4 16 -10z"/>
<path d="M1353 674 c4 -4 1 -14 -6 -22 -10 -13 -9 -15 6 -9 10 4 21 7 23 7 12
0 2 19 -13 24 -10 4 -14 4 -10 0z"/>
<path d="M310 650 c-8 -5 -10 -10 -5 -10 6 0 17 5 25 10 8 5 11 10 5 10 -5 0
-17 -5 -25 -10z"/>
<path d="M1124 635 c19 -15 19 -15 1 -15 -15 0 -16 -3 -7 -12 9 -9 15 -10 20
-2 4 6 13 13 20 15 7 2 -2 10 -20 16 -30 11 -31 11 -14 -2z"/>
<path d="M1490 635 c-24 -29 -153 -86 -180 -80 -20 4 -22 3 -10 -6 12 -9 11
-10 -8 -6 -12 3 -20 2 -17 -3 13 -21 -178 -29 -257 -11 -66 15 -179 59 -199
77 -11 10 -19 12 -23 5 -5 -8 56 -49 84 -56 3 -1 12 -4 20 -8 89 -34 132 -42
240 -42 100 0 126 4 196 28 87 30 198 93 188 108 -8 13 -20 11 -34 -6z"/>
<path d="M1070 632 c0 -5 7 -9 15 -9 8 0 15 4 15 9 0 4 -7 8 -15 8 -8 0 -15
-4 -15 -8z"/>
<path d="M1800 610 c0 -5 5 -10 10 -10 6 0 10 5 10 10 0 6 -4 10 -10 10 -5 0
-10 -4 -10 -10z"/>
<path d="M1520 578 c-37 -31 -156 -85 -225 -103 -80 -20 -235 -21 -314 0 -79
20 -165 58 -209 91 -18 14 -36 24 -38 21 -3 -3 11 -16 31 -30 28 -19 33 -26
20 -31 -17 -6 -12 -26 6 -26 6 0 8 4 4 9 -12 20 16 21 54 2 117 -60 309 -80
448 -45 97 24 270 111 253 127 -3 3 -16 -4 -30 -15z"/>
<path d="M1538 562 c-7 -11 -15 -19 -18 -20 -20 -1 -78 -37 -73 -45 3 -6 1 -7
-5 -3 -6 4 -29 -2 -50 -13 -21 -11 -55 -22 -75 -26 -22 -4 -37 -13 -37 -22 0
-8 -5 -11 -12 -7 -18 12 -59 14 -53 3 4 -5 17 -9 31 -9 13 0 24 -5 24 -11 0
-6 -7 -8 -16 -5 -19 7 -57 -11 -49 -25 4 -5 1 -9 -4 -9 -15 0 -14 23 1 38 9 9
8 12 -7 12 -17 0 -20 -8 -22 -45 -2 -37 1 -45 15 -44 10 0 12 3 5 6 -7 2 -13
9 -13 14 0 6 4 8 9 4 5 -3 12 -1 15 4 4 7 46 17 98 25 3 1 10 4 13 8 4 4 -5 5
-21 2 -22 -3 -25 -2 -14 6 8 5 11 10 6 10 -5 0 -3 6 3 14 7 8 21 12 33 8 15
-4 19 -2 14 7 -5 8 -3 11 5 10 22 -5 69 10 69 22 0 6 4 8 9 4 12 -7 62 16 56
26 -3 4 0 11 6 15 8 4 9 3 5 -4 -4 -7 -2 -12 3 -12 6 0 11 3 11 8 0 4 10 12
23 17 12 6 21 16 20 22 -1 6 3 10 10 9 15 -1 22 17 9 22 -6 2 -16 -6 -24 -16z
m-285 -179 c-7 -2 -19 -2 -25 0 -7 3 -2 5 12 5 14 0 19 -2 13 -5z"/>
<path d="M721 561 c-11 -7 -8 -13 13 -26 20 -14 30 -15 39 -6 8 8 8 11 -2 11
-8 0 -19 7 -25 15 -7 9 -16 12 -25 6z"/>
<path d="M1570 540 c-12 -8 -13 -11 -1 -19 10 -6 10 -10 1 -16 -7 -4 -16 -2
-20 5 -5 9 -17 6 -46 -13 -66 -41 -127 -68 -171 -74 -24 -3 -40 -10 -37 -14 3
-5 9 -7 14 -4 5 3 11 1 15 -5 4 -6 11 -8 16 -4 5 3 25 0 44 -6 28 -9 32 -14
22 -24 -6 -8 -19 -12 -27 -11 -8 2 -19 4 -23 4 -5 1 -5 6 -1 12 4 8 9 8 13 1
4 -7 12 -8 21 -2 13 9 13 10 0 11 -8 0 -22 2 -31 4 -17 3 -19 -10 -6 -32 5 -8
3 -13 -3 -13 -7 0 -14 9 -17 20 -6 21 -18 26 -28 10 -3 -5 -11 -8 -18 -6 -7 1
-8 1 -4 -2 4 -2 3 -10 -4 -18 -9 -11 -8 -15 4 -20 22 -8 37 4 30 24 -6 13 -1
12 21 -6 16 -12 34 -22 40 -22 6 0 5 4 -2 9 -11 7 -11 9 2 14 8 3 18 2 21 -3
4 -7 13 -7 44 -1 2 1 -2 7 -8 14 -6 8 -8 17 -4 20 8 9 -17 38 -28 31 -14 -8
-10 3 7 20 22 22 37 20 25 -3 -14 -26 16 -38 38 -15 15 15 14 16 -6 10 -18 -6
-22 -3 -20 13 1 11 3 18 5 16 3 -2 13 0 22 5 14 7 24 3 45 -18 21 -20 25 -22
18 -7 -6 11 -8 26 -6 33 3 7 -1 11 -7 10 -7 -2 -15 3 -17 10 -4 11 -1 12 17 2
17 -9 24 -9 30 -1 5 9 10 8 20 -4 18 -21 33 -19 21 3 -7 14 -6 25 4 39 20 29
5 43 -25 23z m-146 -188 c3 -5 -1 -9 -9 -9 -8 0 -12 4 -9 9 3 4 7 8 9 8 2 0 6
-4 9 -8z"/>
<path d="M680 507 c0 -10 6 -17 14 -17 8 0 16 -10 18 -22 2 -16 9 -22 22 -20
15 3 16 1 5 -11 -8 -8 -18 -12 -23 -9 -5 3 -6 0 -2 -7 6 -9 11 -9 22 0 10 8
14 8 14 0 0 -6 9 -11 20 -11 12 0 20 7 20 18 0 9 4 23 9 31 8 12 12 12 26 -2
21 -21 36 -22 29 -2 -4 11 0 15 16 15 19 0 20 -2 10 -15 -10 -12 -10 -18 1
-32 12 -15 12 -16 -2 -11 -15 6 -15 4 -2 -23 17 -34 23 -38 16 -9 -6 21 30 74
42 62 4 -4 6 -1 4 6 -3 7 -35 26 -71 42 -37 15 -66 25 -65 21 1 -3 -8 -16 -21
-29 -18 -18 -21 -27 -12 -37 6 -7 7 -16 2 -18 -4 -3 -13 7 -19 23 -9 24 -8 30
5 35 11 4 12 9 4 17 -8 8 -15 8 -27 -2 -13 -11 -19 -10 -35 5 -18 16 -20 16
-20 2z m61 -20 c-6 -8 -8 -17 -4 -20 3 -4 1 -7 -5 -7 -15 0 -15 13 0 28 16 16
23 15 9 -1z m69 -7 c-8 -5 -19 -10 -25 -10 -5 0 -3 5 5 10 8 5 20 10 25 10 6
0 3 -5 -5 -10z m27 -12 c-3 -8 -6 -5 -6 6 -1 11 2 17 5 13 3 -3 4 -12 1 -19z
m66 -28 c-3 -11 -9 -17 -15 -14 -5 3 -4 12 3 20 16 19 18 18 12 -6z"/>
<path d="M1596 505 c-3 -9 1 -18 10 -22 21 -8 25 -1 9 20 -11 15 -13 16 -19 2z"/>
<path d="M1664 499 c-4 -7 -3 -9 4 -5 5 3 13 0 15 -6 4 -9 6 -10 6 -1 1 17
-16 25 -25 12z"/>
<path d="M1554 461 c4 -5 3 -11 -1 -14 -5 -2 -2 -2 5 0 8 2 22 -7 33 -19 10
-13 18 -17 19 -10 0 6 -5 12 -12 12 -6 0 -8 3 -5 7 4 3 -1 12 -11 19 -20 15
-36 18 -28 5z"/>
<path d="M1746 455 c-3 -8 -1 -15 4 -15 6 0 10 7 10 15 0 8 -2 15 -4 15 -2 0
-6 -7 -10 -15z"/>
<path d="M944 438 c-3 -10 -10 -17 -17 -15 -6 1 -12 -9 -14 -23 -1 -17 0 -19
4 -6 4 17 7 16 23 -8 15 -23 18 -25 24 -11 4 12 13 15 30 11 33 -8 42 6 11 18
-19 8 -22 15 -15 26 8 13 10 13 10 -1 0 -9 9 -19 21 -22 16 -4 19 -11 14 -29
-5 -20 -4 -20 5 -5 6 9 8 22 5 27 -3 6 1 10 10 10 9 0 14 4 10 9 -3 5 8 3 25
-5 16 -9 30 -20 30 -25 0 -14 -11 -11 -33 9 -18 15 -20 15 -14 1 3 -9 0 -22
-6 -28 -8 -8 -8 -11 0 -11 7 0 15 5 18 10 4 7 13 7 26 0 16 -9 19 -7 19 13 0
12 5 28 11 34 7 7 4 11 -13 11 -13 0 -58 7 -100 14 -73 13 -78 13 -84 -4z m28
-10 c-7 -7 -12 -21 -13 -32 0 -21 0 -21 -8 -1 -5 11 -4 22 0 23 5 2 7 8 3 13
-3 5 3 9 12 9 14 0 15 -3 6 -12z m71 -5 c-7 -2 -19 -2 -25 0 -7 3 -2 5 12 5
14 0 19 -2 13 -5z"/>
<path d="M1632 449 c2 -7 10 -15 17 -17 8 -3 12 1 9 9 -2 7 -10 15 -17 17 -8
3 -12 -1 -9 -9z"/>
<path d="M1472 441 c-7 -4 -5 -11 8 -19 10 -6 21 -8 23 -4 7 11 -19 31 -31 23z"/>
<path d="M800 436 c0 -2 7 -7 16 -10 8 -3 12 -2 9 4 -6 10 -25 14 -25 6z"/>
<path d="M1667 424 c-3 -3 -1 -11 4 -18 5 -6 16 -20 25 -31 11 -15 11 -12 -2
15 -20 43 -19 41 -27 34z"/>
<path d="M1140 393 c0 -10 5 -25 11 -33 8 -12 9 -10 4 9 -5 17 -4 21 5 16 8
-5 11 -3 8 5 -7 21 -28 24 -28 3z"/>
<path d="M517 370 c-9 -11 -13 -20 -8 -20 11 0 35 29 29 35 -2 2 -12 -4 -21
-15z"/>
<path d="M1000 359 c0 -5 5 -7 10 -4 6 3 10 8 10 11 0 2 -4 4 -10 4 -5 0 -10
-5 -10 -11z"/>
<path d="M1745 320 c3 -5 8 -10 11 -10 2 0 4 5 4 10 0 6 -5 10 -11 10 -5 0 -7
-4 -4 -10z"/>
</g>
</svg>
